<?xml version="1.0" encoding="iso-8859-1"?>
<!-- Uploaded to: SVG Repo, www.svgrepo.com, Generator: SVG Repo Mixer Tools -->
<svg version="1.1" id="Layer_1" xmlns="http://www.w3.org/2000/svg" xmlns:xlink="http://www.w3.org/1999/xlink" 
	 viewBox="0 0 512 512" xml:space="preserve">
<circle style="fill:#232323;" cx="256" cy="256" r="256"/>
<g>
	<rect x="113.424" y="376" style="fill:#E6E5E5;" width="285.144" height="8"/>
	<rect x="157.296" y="400" style="fill:#E6E5E5;" width="197.408" height="8"/>
</g>
<circle style="fill:#FFFFFF;" cx="170.576" cy="179.488" r="37.384"/>
<path style="fill:#DB2B42;" d="M235.064,299.744c0,0,0,1.744,0-33.088s-38.016-35.472-38.016-35.472H144.12
	c0,0-38.016,0.424-38.016,35.472c0,34.832,0,33.088,0,33.088H235.064z"/>
<circle style="fill:#FFFFFF;" cx="341.416" cy="179.488" r="37.384"/>
<path style="fill:#DB2B42;" d="M405.904,299.744c0,0,0,1.744,0-33.088s-38.016-35.472-38.016-35.472H314.96
	c0,0-38.016,0.424-38.016,35.472c0,34.832,0,33.088,0,33.088H405.904z"/>
</svg>